<?xml version="1.0" standalone="no"?>
<!DOCTYPE svg PUBLIC "-//W3C//DTD SVG 1.1//EN" "http://www.w3.org/Graphics/SVG/1.1/DTD/svg11.dtd">
<svg xmlns="http://www.w3.org/2000/svg">
<defs >
<font id="MuseoModerno" horiz-adv-x="547" ><font-face
    font-family="MuseoModerno Thin Light"
    units-per-em="1000"
    panose-1="0 0 0 0 0 0 0 0 0 0"
    ascent="1145"
    descent="-445"
    alphabetic="0" />
<glyph unicode=" " horiz-adv-x="265" />
<glyph unicode="!" horiz-adv-x="248" d="M83 211L160 700H229L153 211H83ZM89 -9Q67 -9 54 6T40 42Q40 57 48 70T69 90T97 97Q119 97 132 82T146 47Q146 32 138 20T117 -1T89 -9Z" />
<glyph unicode="&quot;" horiz-adv-x="411" d="M299 419L329 700H399L369 419H299ZM108 419L138 700H208L178 419H108Z" />
<glyph unicode="#" horiz-adv-x="720" d="M130 0L177 193H21L29 250H190L239 457H81L89 514H252L297 700H358L314 514H491L536 700H597L552 514H712L705 457H539L490 250H651L643 193H477L430 0H369L415 193H238L191 0H130ZM251 250H428L478 457H301L251 250Z" />
<glyph unicode="$" horiz-adv-x="626" d="M279 364L299 518H355L335 364H279ZM277 186L296 335H352L332 186H277ZM38 0L50 64H341Q391 64 426 84T480 137T499 206Q499 236 487 262T447 306T377 323H266Q210 323 171 346T110 408T89 495Q89 550 115 596T191 671T311
700H592L581 636H312Q263 636 230 617T180 567T163 501Q163 471 176 446T214 405T273 390H387Q449 390 490 366T552 302T573 213Q573 173 557 135T510 66T436 18T341 0H38Z" />
<glyph unicode="%" horiz-adv-x="909" d="M658 -13Q617 -13 583 4T529 53T508 126Q508 132 508 139T510 154L518 215Q524 261 551 295T617 348T699 367Q740 367 774 350T828 302T848 229Q848 223 848 216T846 200L838 139Q833 93 806 59T740 6T658 -13ZM229 333Q189
333 155 350T100 398T79 472Q79 477 79 485T81 500L89 561Q96 607 122 641T188 694T270 713Q311 713 345 696T399 648T420 574Q420 569 420 562T418 546L410 485Q404 439 377 405T312 352T229 333ZM234 385Q275 385 310 413T354 492L361 541Q363 548 363 554T363
566Q363 611 334 636T266 661Q238 661 213 649T170 612T146 554L138 504Q137 498 137 492T137 480Q137 435 166 410T234 385ZM663 39Q703 39 738 67T782 146L789 195Q791 202 791 208T791 220Q791 265 762 290T694 316Q667 316 642 303T598 266T574 208L567 159Q566
152 566 146T565 134Q565 89 594 64T663 39ZM154 0L706 700H767L214 0H154Z" />
<glyph unicode="&amp;" horiz-adv-x="831" d="M625 -216Q588 -216 559 -201T512 -157T495 -93Q495 -45 519 -11T583 42T669 67Q663 75 648 89T612 123L560 171Q522 112 480 71T386 7T271 -15Q204 -15 152 11T71 84T41 193Q41 243 64 293T134 385T254 456Q241 469
227 487T204 528T194 576Q194 614 213 645T268 694T349 713Q393 713 424 696T472 651T489 590Q489 555 472 528T424 480T356 444L549 268L557 283Q591 347 617 385T667 441T716 464T776 470H816L807 413H770Q748 413 730 408T694 386T654 336T600 243L592 230L665
164Q688 144 711 120T753 70T784 15T796 -42Q796 -89 775 -129T716 -192T625 -216ZM277 48Q350 48 405 87T515 210L291 416Q243 397 203 367T138 295T114 203Q114 160 133 125T189 70T277 48ZM632 -160Q662 -160 684 -145T719 -106T732 -52Q732 -34 726 -15T703
22Q686 21 662 17T614 0T575 -33T559 -88Q559 -116 579 -138T632 -160ZM319 479Q349 491 373 505T411 539T426 584Q426 621 402 638T345 656Q306 656 283 631T260 576Q260 555 269 538T293 505T319 479Z" />
<glyph unicode="&apos;" horiz-adv-x="220" d="M108 419L138 700H208L178 419H108Z" />
<glyph unicode="(" horiz-adv-x="354" d="M201 -180Q153 -114 123 -15T93 202Q93 262 102 327T134 461T197 597T297 730H378Q300 652 253 563T184 381T163 200Q163 86 195 -11T282 -180H201Z" />
<glyph unicode=")" horiz-adv-x="354" d="M159 730Q207 664 237 565T268 348Q268 288 259 223T226 89T164 -47T63 -180H-17Q61 -101 108 -12T176 170T198 350Q198 464 166 561T79 730H159Z" />
<glyph unicode="*" horiz-adv-x="454" d="M211 328L234 467L101 399L82 446L216 516L106 587L137 630L248 560L270 702H325L302 561L435 631L456 585L321 513L432 444L401 401L289 470L266 328H211Z" />
<glyph unicode="+" horiz-adv-x="590" d="M235 126L264 316H75L85 379H275L304 569H373L344 379H534L523 316H333L304 126H235Z" />
<glyph unicode="," horiz-adv-x="180" d="M-19 -146L37 -6Q21 -2 13 11T4 40Q4 56 12 69T34 89T62 97Q86 97 99 81T110 43Q109 28 104 13T92 -17L41 -146H-19Z" />
<glyph unicode="-" horiz-adv-x="363" d="M36 232L46 296H329L319 232H36Z" />
<glyph unicode="." horiz-adv-x="180" d="M53 -9Q30 -9 17 6T3 42Q3 57 11 70T33 90T60 97Q82 97 95 82T109 47Q109 32 101 20T81 -1T53 -9Z" />
<glyph unicode="/" horiz-adv-x="364" d="M-67 -100L335 730H402L1 -100H-67Z" />
<glyph unicode="0" horiz-adv-x="647" d="M308 -13Q238 -13 185 15T101 93T70 203Q70 216 72 230T75 254L114 499Q125 565 161 612T253 686T376 713Q443 713 495 686T577 609T608 498Q608 484 607 471T603 447L565 204Q554 139 518 90T427 14T308 -13ZM311 52Q354
52 393 71T459 126T493 209L532 457Q533 464 534 474T535 494Q535 537 514 572T456 628T373 649Q325 649 285 628T218 572T185 494L145 241Q144 236 143 225T142 204Q142 162 164 128T224 73T311 52Z" />
<glyph unicode="1" horiz-adv-x="447" d="M17 0L28 64H173L263 636H121L131 700H346L246 64H377L367 0H17Z" />
<glyph unicode="2" d="M122 0Q72 0 45 26T18 93Q18 120 32 148T85 201L373 387Q412 412 432 444T452 516Q452 574 414 604T297 635H134L145 700H307Q381 700 429 678T500 616T523 523Q523 460 493 413T409 332L126 148Q112 139 105 128T98 104Q98 87 110 76T148
64L469 65L460 0H122Z" />
<glyph unicode="3" d="M15 0L26 64H250Q299 64 333 85T387 139T406 208Q406 239 393 267T352 312T283 329L106 328L117 392H306Q354 393 387 412T438 462T455 527Q455 555 443 580T406 621T340 637L119 636L130 700H358Q411 700 449 677T507 616T528 536Q528 474
491 425T387 355Q430 340 455 300T481 210Q481 156 452 108T372 30T254 0H15Z" />
<glyph unicode="4" horiz-adv-x="643" d="M379 0L404 165H167Q128 165 103 179T66 216T53 265Q53 303 77 336L340 700H421L143 317Q136 307 131 296T126 272Q126 255 138 242T180 229H415L456 491H528L487 229H586L575 165H476L451 0H379Z" />
<glyph unicode="5" horiz-adv-x="559" d="M23 0L34 65H243Q289 65 324 80T382 122T416 178T428 238Q428 272 414 302T367 352T281 371H97L151 700H530L518 636H210L178 432H297Q365 432 410 405T478 335T500 243Q500 198 484 155T434 76T351 21T237 0H23Z" />
<glyph unicode="6" horiz-adv-x="615" d="M281 -14Q219 -14 165 9T78 80T45 196Q45 250 65 295T116 383T184 467L376 693H462L214 398V411Q238 427 268 436T330 445Q396 445 447 418T526 342T555 231Q555 183 537 139T484 61T398 6T281 -14ZM287 51Q351 51 395
76T461 141T483 230Q483 270 464 304T407 360T313 381Q259 381 215 357T144 292T118 198Q118 154 139 121T199 70T287 51Z" />
<glyph unicode="7" horiz-adv-x="516" d="M89 0L434 565Q442 578 446 588T450 608Q450 620 441 628T410 636H86L96 700H423Q475 700 499 675T524 615Q524 597 518 579T500 542L171 0H89Z" />
<glyph unicode="8" horiz-adv-x="637" d="M290 -13Q222 -13 166 9T76 74T43 176Q43 242 83 295T199 375Q156 397 135 431T114 505Q114 559 145 606T234 683T372 713Q445 713 496 689T573 625T599 537Q599 482 566 436T467 365Q522 339 545 300T568 215Q568 169
549 128T493 55T406 5T290 -13ZM297 52Q358 52 403 74T472 132T496 211Q496 255 471 283T404 324T313 338Q249 338 206 317T139 261T116 184Q116 142 140 113T205 68T297 52ZM352 400Q410 400 449 418T507 466T527 533Q527 570 505 596T447 635T364 648Q317 648
276 632T211 585T186 510Q186 473 208 449T268 412T352 400Z" />
<glyph unicode="9" horiz-adv-x="615" d="M177 0L430 301V290Q406 274 376 267T314 259Q248 259 197 284T117 356T88 465Q88 511 106 555T159 635T245 692T360 713Q407 713 450 700T526 661T579 595T599 504Q599 450 579 405T528 317T460 232L262 0H177ZM331 323Q385
323 429 345T500 408T526 502Q526 546 505 579T445 630T357 648Q296 648 252 622T185 555T161 469Q161 430 180 397T237 343T331 323Z" />
<glyph unicode=":" horiz-adv-x="180" d="M120 413Q97 413 84 428T70 464Q70 479 78 492T100 512T127 519Q149 519 162 504T176 469Q176 454 168 442T148 421T120 413ZM53 -9Q30 -9 17 6T3 42Q3 57 11 70T33 90T60 97Q82 97 95 82T109 47Q109 32 101 20T81 -1T53 -9Z" />
<glyph unicode=";" horiz-adv-x="180" d="M-19 -146L37 -6Q21 -2 13 11T4 40Q4 56 12 69T34 89T62 97Q86 97 99 81T110 43Q109 28 104 13T92 -17L41 -146H-19ZM120 413Q97 413 84 428T70 464Q70 479 78 492T100 512T127 519Q149 519 162 504T176 469Q176 454 168
442T148 421T120 413Z" />
<glyph unicode="&lt;" horiz-adv-x="564" d="M490 108L60 315L71 386L566 594L556 524L136 348L501 172L490 108Z" />
<glyph unicode="=" horiz-adv-x="590" d="M98 426L108 489H556L546 426H98ZM64 208L74 271H522L513 208H64Z" />
<glyph unicode="&gt;" horiz-adv-x="564" d="M27 108L39 180L459 356L94 533L104 594L535 386L524 315L27 108Z" />
<glyph unicode="?" horiz-adv-x="414" d="M94 229L104 291H115Q184 292 231 319T302 390T327 481Q327 521 308 557T250 616T149 639H105L114 700H163Q238 700 290 670T370 591T398 487Q398 419 362 360T261 265T107 229H94ZM98 -9Q76 -9 63 6T49 42Q49 57 57 70T78
90T106 97Q128 97 141 82T155 47Q155 32 147 20T126 -1T98 -9Z" />
<glyph unicode="@" horiz-adv-x="1056" d="M483 -216Q394 -216 316 -186T177 -99T83 35T49 205Q49 315 88 409T197 573T361 681T564 720Q656 720 736 690T878 605T974 474T1009 309Q1009 262 998 213T961 123T898 57T805 32Q753 32 720 61T680 134Q648 92 606
68T509 44Q454 44 410 69T339 138T313 237Q313 284 330 325T379 398T451 446T539 464Q593 464 638 441T710 374T737 273Q737 245 732 222T727 180Q727 144 748 119T812 94Q849 94 874 114T914 167T936 235T943 302Q943 380 913 445T829 557T707 631T561 657Q467
657 387 623T246 529T151 387T117 211Q117 131 146 64T228 -51T347 -126T492 -152H513L503 -216H483ZM514 106Q558 106 593 127T650 184T671 263Q671 303 653 334T604 383T534 401Q492 401 457 380T401 322T380 242Q380 207 397 176T444 125T514 106Z" />
<glyph unicode="A" horiz-adv-x="685" d="M-37 0L310 646Q331 684 355 698T410 713Q446 713 467 694T498 634L642 0H565L524 184H140L43 0H-37ZM173 248H512L435 614Q431 631 424 640T403 649Q391 649 383 641T365 617L173 248Z" />
<glyph unicode="B" horiz-adv-x="692" d="M33 0L143 700H487Q541 700 580 678T641 618T664 536Q664 493 645 458T592 397T518 361Q567 346 600 303T634 202Q634 141 604 96T523 25T409 0H33ZM116 64H405Q454 64 489 84T543 138T562 210Q562 243 545 269T500 310T437
325H157L116 64ZM167 388H435Q474 388 510 404T571 451T595 525Q595 556 580 581T538 621T476 636H205L167 388Z" />
<glyph unicode="C" horiz-adv-x="503" d="M354 0Q284 0 226 25T127 93T62 195T39 321Q39 408 69 477T155 597T283 673T442 700H532L522 636H436Q373 636 315 616T211 556T139 457T112 321Q112 265 131 218T185 137T266 84T366 65H432L422 0H354Z" />
<glyph unicode="D" horiz-adv-x="710" d="M39 0L149 700H360Q438 700 497 676T597 611T659 514T680 395Q680 344 665 289T619 183T540 90T424 24T266 0H39ZM122 64H271Q358 64 421 94T526 172T588 279T608 393Q608 464 577 518T489 604T351 636H211L122 64Z" />
<glyph unicode="E" horiz-adv-x="558" d="M248 0Q184 0 138 25T68 92T44 184Q44 240 67 285T131 368Q115 391 106 420T97 483Q97 549 127 598T212 673T338 700H579L569 636H323Q249 636 208 594T167 486Q167 463 170 445T184 410Q230 443 278 457T376 472Q420
472 454 460T507 423T526 363Q526 331 508 303T454 256T367 238Q320 238 283 250T219 282T172 321Q147 295 132 264T117 192Q117 159 132 130T180 83T262 64L480 65L470 0H248ZM370 295Q409 295 434 313T460 359Q460 387 436 401T372 415Q334 415 296 404T219 364Q246
333 284 314T370 295Z" />
<glyph unicode="F" horiz-adv-x="527" d="M28 0L114 543Q126 620 176 660T304 700H556L546 636H309Q255 636 224 608T184 531L159 372H467L457 308H149L100 0H28Z" />
<glyph unicode="G" horiz-adv-x="835" d="M537 -223Q497 -223 463 -207T409 -159T388 -84Q388 -62 393 -39T407 2Q400 2 393 2T376 1Q301 1 243 29T146 104T86 211T65 333Q65 409 91 477T165 599T281 684T432 716Q515 716 579 688T687 613T753 504T776 374Q776
350 774 329T769 288L714 -55Q706 -110 681 -147T620 -204T537 -223ZM539 -159Q576 -159 605 -134T642 -57L685 212Q648 195 609 167T535 102T479 22T457 -68Q457 -112 480 -135T539 -159ZM393 63Q405 63 416 64T441 67Q461 104 494 143T577 220T696 287L699 305Q702
321 703 339T705 374Q705 429 687 478T635 567T550 628T434 651Q365 651 311 625T217 553T158 451T138 334Q138 282 155 234T206 147T287 86T393 63Z" />
<glyph unicode="H" horiz-adv-x="703" d="M39 0L149 699H221L172 388H573L622 699H694L584 0H512L563 324H162L111 0H39Z" />
<glyph unicode="I" horiz-adv-x="454" d="M13 0L23 64H163L252 636H113L123 700H473L463 636H324L235 64H373L363 0H13Z" />
<glyph unicode="J" horiz-adv-x="405" d="M100 -216Q38 -216 1 -182T-36 -83Q-36 -23 -9 31T62 132T158 218T257 285L313 636H158L168 700H395L280 -38Q271 -101 245 -140T181 -197T100 -216ZM105 -151Q128 -151 149 -140T186 -104T208 -39L245 202Q207 177 170
147T102 82T53 8T34 -73Q34 -112 53 -131T105 -151Z" />
<glyph unicode="K" horiz-adv-x="679" d="M33 0L165 700H237L175 372H384Q457 372 509 406T576 520L611 700H683L648 512Q633 433 588 387T474 323L532 105Q538 83 547 74T579 65H621L610 0H559Q518 0 495 18T463 73L400 309Q390 309 379 309T356 308H164L105 0H33Z" />
<glyph unicode="L" horiz-adv-x="472" d="M208 0Q156 0 123 15T74 58T58 125Q58 139 60 156T64 188L144 699H216L134 178Q133 168 132 155T130 131Q130 98 148 81T210 64H408L397 0H208Z" />
<glyph unicode="M" horiz-adv-x="1090" d="M507 -13Q460 -13 426 7T372 62T353 143Q353 155 354 169T358 196L409 515Q410 523 411 533T413 551Q413 593 385 620T314 648Q284 648 258 635T215 597T193 541L108 1H36L119 531Q128 588 154 628T223 691T321 713Q372
713 408 693T465 637T485 555Q485 545 484 533T480 511L429 185Q428 175 427 165T425 145Q425 103 449 78T515 52Q561 52 595 82T637 166L694 531Q704 588 730 628T800 691T898 713Q948 713 984 693T1040 637T1060 555Q1060 545 1059 533T1056 511L975 1H903L984
516Q986 523 987 533T988 551Q988 594 961 621T890 648Q859 648 834 635T791 597T768 541L710 171Q701 114 675 73T607 10T507 -13Z" />
<glyph unicode="N" horiz-adv-x="798" d="M507 -13Q459 -13 425 7T372 63T353 143Q353 155 354 169T358 196L409 515Q410 523 411 533T413 551Q413 593 385 620T314 648Q284 648 258 635T215 598T193 542L109 0H37L119 531Q128 588 154 628T223 691T321 713Q371
713 407 693T464 637T485 555Q485 545 484 533T480 511L429 185Q428 175 427 165T425 145Q425 101 450 77T515 52Q544 52 570 65T613 102T636 159L720 700H792L710 169Q702 114 674 73T604 10T507 -13Z" />
<glyph unicode="O" horiz-adv-x="823" d="M409 -13Q333 -13 270 12T162 82T91 190T65 328Q65 409 93 479T172 601T293 683T446 713Q516 713 578 690T687 623T762 516T789 373Q789 285 759 214T675 92T554 14T409 -13ZM412 52Q479 52 534 77T631 145T695 246T718
369Q718 451 683 514T586 612T442 648Q372 648 316 623T220 553T158 451T136 331Q136 257 167 194T259 91T412 52Z" />
<glyph unicode="P" horiz-adv-x="654" d="M40 1L150 701L439 700Q503 700 549 673T620 600T645 498Q645 448 626 402T571 320T484 264T368 243H150L112 1H40ZM160 308H371Q435 308 479 333T548 401T572 492Q572 534 554 566T502 617T424 636H211L160 308Z" />
<glyph unicode="Q" horiz-adv-x="823" d="M631 -216Q569 -216 517 -193T430 -125T381 -15Q287 -8 216 37T105 156T65 326Q65 408 93 478T172 601T293 683T446 713Q516 713 578 690T687 623T762 516T789 372Q789 265 744 183T627 52Q672 39 708 19T765 -31T786
-96Q786 -133 766 -160T711 -201T631 -216ZM623 -158Q667 -159 692 -139T717 -89Q717 -66 702 -49T664 -18T612 3T557 13Q530 4 502 -1T446 -9Q451 -27 462 -52T493 -101T545 -141T623 -158ZM412 50Q476 50 531 73T628 139T693 240T717 369Q717 459 680 521T580
615T442 648Q376 648 320 624T223 556T160 454T137 329Q137 246 170 184T265 86T412 50Z" />
<glyph unicode="R" horiz-adv-x="675" d="M39 0L149 700H447Q510 700 556 673T628 601T654 501Q654 454 637 409T583 329T485 272L533 108Q539 86 550 76T585 65H626L616 0H564Q522 0 499 19T465 73L410 259Q398 258 387 257T365 256H152L112 0H39ZM162 320H380Q446
320 490 343T558 406T581 495Q581 535 562 567T509 617T432 636H212L162 320Z" />
<glyph unicode="S" horiz-adv-x="629" d="M38 0L50 64H341Q391 64 426 84T480 137T499 206Q499 236 487 262T447 306T377 323H266Q210 323 171 346T110 408T89 495Q89 550 115 596T191 671T311 700H592L581 636H312Q263 636 230 617T180 567T163 501Q163 471 176
446T214 405T273 390H387Q449 390 490 366T552 302T573 213Q573 173 557 135T510 66T436 18T341 0H38Z" />
<glyph unicode="T" horiz-adv-x="571" d="M388 0Q308 0 271 35T234 131Q234 144 236 158T239 184L310 636H88L98 700H614L604 636H382L310 182Q309 172 308 160T306 139Q306 101 327 83T394 64H439L428 0H388Z" />
<glyph unicode="U" horiz-adv-x="696" d="M326 -13Q252 -13 196 15T107 96T75 219Q75 231 76 243T79 269L148 700H220L151 262Q150 252 149 243T147 224Q147 172 170 133T234 73T330 52Q393 52 438 79T511 156T549 269L617 700H689L619 258Q606 174 568 113T468
20T326 -13Z" />
<glyph unicode="V" horiz-adv-x="669" d="M298 -13Q267 -13 244 6T211 67L73 700H149L273 90Q276 74 281 64T300 54Q313 54 320 64T337 90L656 700H736L396 62Q375 24 352 6T298 -13Z" />
<glyph unicode="W" horiz-adv-x="1126" d="M295 -13Q224 -13 172 14T91 90T62 206Q62 222 64 240T69 275L137 700H209L140 265Q138 254 136 240T134 215Q134 142 179 97T304 52Q361 52 406 78T480 149T518 246L589 700H661L590 249Q589 240 588 230T586 208Q586
163 607 128T668 72T759 52Q816 52 860 78T932 148T968 241L1040 700H1112L1042 247Q1030 172 992 113T895 21T757 -13Q702 -13 658 4T583 53T539 130Q501 62 436 25T295 -13Z" />
<glyph unicode="X" horiz-adv-x="673" d="M19 0L296 333Q250 341 212 366T152 432T129 533Q129 547 130 561T134 590L153 700H226L204 579Q203 569 202 560T201 541Q201 475 241 434T349 391L604 700H689L426 386Q515 374 560 325T606 194Q606 180 605 165T601
135L578 0H506L530 141Q532 153 533 164T534 186Q534 255 493 290T373 326L104 0H19Z" />
<glyph unicode="Y" horiz-adv-x="696" d="M266 0L298 207Q201 220 148 281T94 432Q94 446 96 461T100 490L133 700H205L172 491Q170 479 169 465T167 439Q167 359 217 314T353 268Q405 268 448 288T522 351T564 462L602 700H674L635 453Q617 339 548 277T370 205L338
0H266Z" />
<glyph unicode="Z" horiz-adv-x="532" d="M218 -215Q178 -215 148 -199T103 -153T87 -82Q87 -26 113 29T190 137T309 234L350 195Q290 159 247 114T179 21T155 -73Q155 -112 174 -131T227 -151Q265 -151 290 -131T332 -78T355 -9T363 57Q363 116 347 149T308 199Q288
213 266 217T225 221H181Q137 221 115 242T93 297Q93 327 112 352T172 398L414 520Q442 533 458 551T475 594Q475 616 461 626T420 636H95L106 700H435Q489 700 520 675T551 603Q551 572 537 546T499 499T445 464L221 354Q205 346 192 336T178 309Q178 282 212
282H240Q300 276 342 253T408 184T431 64Q431 19 418 -29T379 -120T313 -188T218 -215Z" />
<glyph unicode="[" horiz-adv-x="320" d="M8 -180L152 730H376L366 666H211L88 -116H243L232 -180H8Z" />
<glyph unicode="\" horiz-adv-x="322" d="M238 -100L31 730H98L304 -100H238Z" />
<glyph unicode="]" horiz-adv-x="321" d="M318 730L174 -180H-50L-39 -116H116L239 666H84L94 730H318Z" />
<glyph unicode="^" horiz-adv-x="570" d="M90 376L317 730H382L518 376H454L342 668L156 376H90Z" />
<glyph unicode="_" horiz-adv-x="500" d="M-56 -94L-47 -41H453L444 -94H-56Z" />
<glyph unicode="`" horiz-adv-x="205" d="M172 757L96 880H164L240 757H172Z" />
<glyph unicode="a" horiz-adv-x="650" d="M276 -13Q209 -13 157 19T76 106T46 232Q46 295 66 348T125 440T213 501T324 523Q374 523 419 506T500 455T555 374T573 265Q572 252 571 240T566 215L532 0H462L478 101H477Q442 49 390 18T276 -13ZM296 47Q352 47 397
76T471 154T502 263Q505 321 482 365T418 436T322 462Q266 462 219 432T144 351T116 236Q116 181 139 139T203 72T296 47Z" />
<glyph unicode="b" horiz-adv-x="656" d="M328 -13Q252 -13 196 19T109 108T78 237Q78 250 79 262T82 289L153 730H223L173 417H174Q208 465 260 493T373 521Q441 521 493 490T575 403T606 275Q606 213 585 161T527 70T439 9T328 -13ZM328 47Q385 47 430 76T504
154T534 263Q537 322 514 367T449 437T354 462Q298 462 251 433T176 353T148 237Q148 183 171 140T236 72T328 47Z" />
<glyph unicode="c" horiz-adv-x="419" d="M287 0Q223 0 169 27T83 105T50 228Q50 311 86 374T187 473T337 510H426L416 449H333Q266 449 219 419T146 340T121 235Q121 176 145 138T210 80T294 61H355L345 0H287Z" />
<glyph unicode="d" horiz-adv-x="656" d="M300 -13Q226 -13 170 20T83 110T52 239Q52 299 73 350T130 440T216 501T323 523Q375 523 416 505T487 457T530 386H531L585 730H655L579 243Q568 165 529 108T432 19T300 -13ZM305 47Q362 47 407 76T480 154T510 261Q513
321 489 366T422 437T327 463Q271 463 225 434T152 354T124 242Q124 187 147 143T211 73T305 47Z" />
<glyph unicode="e" horiz-adv-x="553" d="M324 0Q242 0 181 24T84 97T49 223Q49 287 71 341T134 436T227 500T345 523Q401 523 440 505T500 457T521 390Q521 340 491 302T412 237T300 196T174 179Q162 178 151 179T128 181Q141 128 188 95T329 61H435L427 0H324ZM122
233Q131 232 141 232T161 231Q221 234 273 246T365 277T427 322T449 380Q449 416 418 439T335 463Q276 463 228 432T150 350T122 236Q122 235 122 235T122 233Z" />
<glyph unicode="f" horiz-adv-x="387" d="M-113 -203L-104 -142H-45Q-10 -142 9 -133T37 -103T52 -48L129 449H40L50 510H139L151 585Q163 656 205 693T319 730H435L426 669H323Q276 669 252 647T220 577L209 510H382L372 449H199L120 -60Q109 -133 71 -168T-42
-203H-113Z" />
<glyph unicode="g" horiz-adv-x="656" d="M357 -217Q307 -217 273 -197T221 -145T203 -76Q203 -55 208 -33T223 5Q179 14 141 44T80 123T57 234Q57 296 78 348T139 440T229 501T341 523Q422 523 477 491T560 405T588 283Q588 271 587 258T583 231L541 -34Q532
-92 508 -133T446 -195T357 -217ZM358 -157Q405 -157 433 -125T471 -41L503 164Q486 155 458 140T398 104T336 57T289 0T270 -67Q270 -106 292 -131T358 -157ZM257 61Q290 105 353 147T513 225L516 248Q518 259 518 269T519 289Q519 343 497 381T435 441T339 462Q278
462 230 432T155 350T127 236Q127 188 143 151T189 90T257 61Z" />
<glyph unicode="h" horiz-adv-x="632" d="M38 0L152 730H222L174 435L175 432Q215 478 263 500T358 523Q421 523 466 496T537 422T562 317Q562 303 560 287T556 257L515 0H445L487 267Q489 278 490 289T491 313Q491 358 474 391T423 444T343 463Q300 463 260 443T192
386T154 296L108 0H38Z" />
<glyph unicode="i" horiz-adv-x="224" d="M37 0L117 510H187L107 0H37ZM171 602Q150 602 137 616T123 650Q123 663 130 675T149 694T177 702Q197 702 210 689T224 655Q224 639 217 627T197 609T171 602Z" />
<glyph unicode="j" horiz-adv-x="294" d="M23 -217Q-25 -217 -49 -187T-74 -111Q-74 -63 -50 -6T23 106T145 204L161 148Q104 111 67 66T12 -24T-7 -103Q-7 -127 3 -142T32 -157Q57 -157 69 -142T89 -102T100 -48L132 155L136 179L188 510H258L171 -45Q165 -80
155 -111T129 -166T87 -203T23 -217ZM242 602Q221 602 208 616T194 650Q194 663 201 675T220 694T248 702Q268 702 281 689T295 655Q295 639 288 627T268 609T242 602Z" />
<glyph unicode="k" horiz-adv-x="611" d="M38 0L152 730H222L153 287H322L501 510H580L384 275Q453 261 486 215T520 103Q520 93 519 82T516 59L507 0H437L447 63Q448 71 449 80T450 98Q450 154 416 190T316 226H143L107 0H38Z" />
<glyph unicode="l" horiz-adv-x="390" d="M162 0Q110 0 84 28T57 104Q57 113 58 122T61 141L127 567Q132 603 146 634T181 690T232 728T299 742Q345 742 374 724T417 675T432 606Q432 554 412 506T352 413T257 332T135 267L137 332Q205 360 256 404T335 499T364
597Q364 635 348 658T295 682Q259 682 233 654T197 569L133 154Q131 143 130 133T129 114Q129 87 142 74T184 61H283L274 0H162Z" />
<glyph unicode="m" horiz-adv-x="972" d="M36 0L86 318Q96 378 127 424T209 496T323 523Q357 523 393 512T459 474T504 402H505Q529 447 563 473T634 511T705 523Q768 523 812 498T879 429T903 328Q903 315 902 302T898 276L854 0H785L831 286Q832 295 833 304T834
322Q834 388 798 425T699 463Q656 463 620 442T559 386T528 308L480 0H410L456 291Q458 300 458 309T459 326Q459 366 441 396T392 444T320 462Q278 462 243 442T185 389T155 315L106 0H36Z" />
<glyph unicode="n" horiz-adv-x="632" d="M37 0L84 302Q96 373 132 422T222 497T341 523Q409 523 458 496T534 421T561 315Q561 306 561 295T558 273L515 0H445L488 277Q490 286 490 294T491 310Q491 377 449 419T335 462Q294 462 256 444T190 389T154 296L107 0H37Z" />
<glyph unicode="o" horiz-adv-x="630" d="M299 -13Q229 -13 173 19T84 108T51 235Q51 295 72 347T132 438T222 500T331 522Q401 522 457 490T546 401T579 272Q579 214 558 163T499 72T411 10T299 -13ZM303 48Q365 48 411 79T483 162T509 270Q509 325 485 368T420
436T327 461Q268 461 222 431T148 351T121 239Q121 186 144 143T209 74T303 48Z" />
<glyph unicode="p" horiz-adv-x="658" d="M4 -220L80 270Q92 346 130 402T228 491T361 523Q432 523 487 491T574 404T606 277Q606 217 586 165T528 73T442 11T334 -12Q260 -12 205 25T129 124H128L74 -220H4ZM330 48Q386 48 433 77T507 157T535 272Q535 326 512
369T449 438T354 463Q299 463 253 434T179 357T148 248Q146 191 169 146T234 74T330 48Z" />
<glyph unicode="q" horiz-adv-x="630" d="M221 -203L253 1H322L290 -203H221ZM299 -13Q229 -13 173 19T84 108T51 235Q51 295 72 347T132 438T222 500T331 522Q401 522 457 490T546 401T579 272Q579 214 558 163T499 72T411 10T299 -13ZM303 48Q365 48 411 79T483
162T509 270Q509 325 485 368T420 436T327 461Q268 461 222 431T148 351T121 239Q121 186 144 143T209 74T303 48Z" />
<glyph unicode="r" horiz-adv-x="323" d="M37 0L94 365Q105 435 147 472T262 510H350L340 449H266Q220 449 196 428T163 359L107 0H37Z" />
<glyph unicode="s" horiz-adv-x="522" d="M25 0L35 61H285Q318 61 340 75T375 111T387 158Q387 189 365 211T298 234H217Q169 234 137 251T87 297T70 362Q70 399 89 433T144 488T234 510H469L459 450H229Q202 450 182 438T152 408T141 369Q141 340 161 319T226
298H304Q356 298 389 281T439 234T456 168Q456 125 435 87T375 24T281 0H25Z" />
<glyph unicode="t" horiz-adv-x="401" d="M210 0Q148 0 117 31T86 116Q86 133 89 152L166 638H236L161 161Q158 143 158 130Q158 98 174 80T228 61H332L322 0H210ZM47 449L57 510H405L395 449H47Z" />
<glyph unicode="u" horiz-adv-x="632" d="M595 510L547 208Q537 137 501 88T410 13T290 -13Q223 -13 174 14T98 89T71 195Q71 204 72 215T74 237L117 510H187L144 233Q143 225 142 217T141 200Q141 133 182 91T297 48Q339 48 376 66T441 121T477 214L525 510H595Z" />
<glyph unicode="v" horiz-adv-x="578" d="M245 -13Q214 -13 191 5T159 63L64 510H140L226 79Q229 66 235 61T250 56Q268 56 281 81L506 510H586L343 55Q325 21 301 4T245 -13Z" />
<glyph unicode="w" horiz-adv-x="975" d="M209 -13Q161 -13 128 5T78 57T61 135Q61 146 62 156T65 178L117 510H187L132 162Q130 147 130 135Q130 96 150 72T213 47Q255 47 280 76T313 162L344 355Q352 410 375 447T433 503T515 523Q562 523 594 505T643 456T661
381Q661 372 661 363T658 343L630 162Q629 155 629 149T628 137Q628 98 649 74T714 49Q754 49 779 76T812 157L868 510H938L883 166Q873 105 851 66T795 7T715 -13Q665 -13 631 6T579 59T560 138Q560 147 561 157T563 176L590 354Q592 359 592 365T592 376Q592
414 572 438T513 463Q473 463 448 434T414 353L382 154Q373 102 351 65T293 7T209 -13Z" />
<glyph unicode="x" horiz-adv-x="599" d="M9 0L236 245Q164 268 127 311T90 422Q90 432 91 442T94 464L100 510H170L162 464Q161 453 160 444T159 424Q159 366 195 334T300 290L498 510H581L365 275Q437 255 477 208T518 94Q518 84 517 74T514 53L505 0H435L445
56Q447 65 448 73T449 89Q449 146 410 183T300 229L94 0H9Z" />
<glyph unicode="y" horiz-adv-x="632" d="M325 -217Q275 -217 241 -197T189 -145T171 -76Q171 -37 190 4T248 86T347 163T489 227L476 167Q365 123 302 61T238 -67Q238 -106 260 -131T326 -157Q373 -157 402 -125T439 -41L524 510H595L510 -34Q501 -91 477 -132T414
-195T325 -217ZM208 2Q143 19 107 69T71 188Q71 199 72 214T74 239L118 510H187L145 240Q144 230 143 219T142 199Q142 145 168 109T240 61L208 2Z" />
<glyph unicode="z" horiz-adv-x="432" d="M172 -217Q105 -217 71 -177T37 -77Q37 -36 56 9T117 94T226 160L255 117Q205 99 172 68T121 0T104 -73Q104 -110 122 -133T179 -157Q216 -157 241 -133T279 -72T292 7Q292 48 279 82T235 129Q225 135 208 137T175 140H123Q89
140 68 157T47 205Q47 234 64 254T117 290L311 376Q334 386 343 395T353 420Q353 449 314 449H53L62 510H333Q377 510 403 489T430 430Q430 395 410 369T349 325L168 246Q154 239 146 233T137 214Q137 193 169 192L207 191Q265 185 299 159T348 94T363 9Q363 -33
351 -73T313 -146T253 -197T172 -217Z" />
<glyph unicode="{" horiz-adv-x="360" d="M187 -180Q138 -180 111 -153T83 -77Q83 -70 83 -64T85 -49L122 183Q123 188 123 192T124 201Q124 224 109 238T67 253H33L43 317H77Q107 317 128 336T155 390L191 617Q200 672 234 701T324 730H416L406 666H328Q301 666
282 650T259 604L225 390Q219 354 199 326T141 285Q169 273 181 251T194 201Q194 196 194 190T192 179L157 -45Q156 -51 156 -57T155 -69Q155 -116 205 -116H282L272 -180H187Z" />
<glyph unicode="|" horiz-adv-x="226" d="M9 -180L153 730H221L77 -180H9Z" />
<glyph unicode="}" horiz-adv-x="360" d="M179 730Q229 730 256 703T283 627Q283 621 283 614T281 599L244 367Q243 363 243 359T243 349Q243 326 258 312T300 297H334L324 233H290Q259 233 238 214T212 160L175 -67Q167 -121 133 -150T42 -180H-50L-39 -116H38Q66
-116 84 -100T107 -54L141 160Q147 196 167 224T225 265Q198 278 185 300T172 349Q172 354 172 360T174 371L210 595Q211 601 211 607T212 619Q212 666 161 666H84L94 730H179Z" />
<glyph unicode="~" horiz-adv-x="576" d="M364 289Q332 289 308 298T264 321T223 344T179 354Q153 354 127 342T66 303L38 347Q78 380 114 397T187 414Q217 414 240 404T284 381T325 358T374 348Q398 348 421 358T466 383T510 416L540 372Q486 328 445 309T364 289Z" />
<glyph unicode="&#xa0;" horiz-adv-x="265" />
<glyph unicode="&#xa1;" horiz-adv-x="248" d="M18 -191L94 291H163L88 -191H18ZM154 414Q131 414 118 429T104 465Q104 480 112 492T134 512T161 519Q183 519 196 504T210 470Q210 455 202 442T182 422T154 414Z" />
<glyph unicode="&#xa2;" horiz-adv-x="409" d="M271 487L293 629H347L326 495L271 487ZM175 -119L199 25L250 15L229 -119H175ZM287 0Q223 0 169 27T83 105T50 228Q50 311 86 374T187 473T337 510H426L416 449H333Q266 449 219 419T146 340T121 235Q121 176 145
138T210 80T294 61H355L345 0H287Z" />
<glyph unicode="&#xa3;" horiz-adv-x="597" d="M29 0L39 64H147L219 521Q229 581 255 620T323 679T426 699H576L565 635H422Q364 635 331 602T289 513L219 64H511L501 0H29ZM81 335L92 399H457L447 335H81Z" />
<glyph unicode="&#xa4;" horiz-adv-x="675" d="M77 33L35 84L128 168Q109 194 98 227T86 301Q86 353 105 398T156 479L93 552L144 596L208 523Q242 547 282 560T362 574Q408 574 448 559T521 516L609 593L650 543L563 468Q585 440 596 405T608 333Q608 289 589
239T530 148L592 78L543 33L478 106Q447 86 410 75T330 63Q309 63 282 68T226 87T171 121L77 33ZM333 126Q373 126 410 141T476 184T522 249T540 331Q540 381 516 421T451 485T359 510Q304 511 257 483T182 408T154 306Q154 259 176 218T238 151T333 126Z" />
<glyph unicode="&#xa5;" horiz-adv-x="722" d="M287 24L304 133H26L34 186H313L324 262Q299 266 277 273T235 293H52L60 345H180Q156 373 144 410T131 490Q131 501 132 513T135 538L160 700H232L206 532Q204 522 204 512T203 492Q203 414 253 368T388 321Q438
321 482 342T558 408T601 520L630 700H702L673 514Q656 408 596 345H691L684 293H529Q502 277 469 269T397 259L385 186H666L657 133H377L359 24H287Z" />
<glyph unicode="&#xa6;" horiz-adv-x="226" d="M90 331L153 730H221L158 331H90ZM9 -180L72 219H140L77 -180H9Z" />
<glyph unicode="&#xa7;" horiz-adv-x="628" d="M86 -157L95 -96H294Q336 -96 365 -80T409 -38T425 19Q425 42 415 64T385 101T333 116H197Q151 116 119 138T72 194T56 266Q56 306 73 339T120 395T188 426Q165 442 151 472T137 536Q137 581 160 618T228 677T335
700H544L535 639H335Q270 639 238 606T205 529Q205 508 214 486T242 448T292 432H435Q481 432 512 411T560 357T576 288Q576 251 559 218T511 160T441 128Q461 110 477 80T493 19Q493 -27 468 -67T397 -132T287 -157H86ZM212 176H401Q431 176 455 190T494 228T509
279Q509 303 500 324T471 358T422 372H232Q183 372 154 343T125 270Q125 247 134 226T163 190T212 176Z" />
<glyph unicode="&#xa8;" horiz-adv-x="391" d="M362 720Q344 720 332 732T320 762Q320 780 334 794T368 808Q385 808 397 797T409 767Q409 745 395 733T362 720ZM185 720Q167 720 155 732T143 762Q143 780 157 794T191 808Q208 808 220 797T232 767Q232 745 218
733T185 720Z" />
<glyph unicode="&#xa9;" horiz-adv-x="867" d="M433 -38Q358 -38 292 -11T175 67T95 184T66 329Q66 412 97 483T183 608T309 692T461 722Q535 722 601 695T719 617T799 500T829 354Q829 272 798 201T711 76T585 -8T433 -38ZM459 147Q406 147 366 173T304 240T282
329Q282 388 310 432T387 501T498 526H552L547 476H490Q448 476 413 458T356 408T335 332Q335 297 351 266T397 216T464 197H518L513 147H459ZM436 4Q507 4 570 31T682 106T758 217T786 354Q786 424 760 483T689 587T584 655T459 679Q388 679 325 652T213 577T137
466T109 329Q109 259 135 200T207 96T311 28T436 4Z" />
<glyph unicode="&#xaa;" horiz-adv-x="426" d="M237 390Q173 390 137 429T100 528Q100 581 122 622T185 688T278 713Q346 713 384 675T422 575Q422 566 422 556T419 537L396 393H343L352 454H351Q330 423 301 407T237 390ZM249 435Q278 435 305 451T350 497T368
570Q368 612 344 639T274 666Q237 666 210 648T169 599T154 534Q154 489 180 462T249 435Z" />
<glyph unicode="&#xab;" horiz-adv-x="524" d="M363 119L245 314L425 510H500L316 313L432 119H363ZM170 119L52 314L232 510H307L123 313L239 119H170Z" />
<glyph unicode="&#xac;" horiz-adv-x="559" d="M437 148L455 265H41L51 326H530L502 148H437Z" />
<glyph unicode="&#xad;" horiz-adv-x="363" d="M36 232L46 296H329L319 232H36Z" />
<glyph unicode="&#xae;" horiz-adv-x="867" d="M433 -38Q358 -38 292 -11T175 67T95 184T66 329Q66 412 97 483T183 608T309 692T461 722Q535 722 601 695T719 617T799 500T829 354Q829 272 798 201T711 76T585 -8T433 -38ZM274 150L334 529H493Q544 529 575 497T607
419Q607 379 582 343T509 293L543 207Q549 192 567 192H592L585 150H553Q534 150 519 159T496 185L459 282H345L324 150H274ZM436 4Q507 4 570 31T682 106T758 217T786 354Q786 424 760 483T689 587T584 655T459 679Q388 679 325 652T213 577T137 466T109 329Q109
259 135 200T207 96T311 28T436 4ZM352 327H461Q505 327 530 353T556 414Q556 441 537 462T483 483H376L352 327Z" />
<glyph unicode="&#xaf;" horiz-adv-x="300" d="M60 596L68 645H356L348 596H60Z" />
<glyph unicode="&#xb0;" horiz-adv-x="419" d="M247 399Q205 399 172 419T119 472T100 545Q100 591 123 629T185 690T268 713Q311 713 344 693T396 640T415 567Q415 522 392 484T330 422T247 399ZM250 450Q279 450 304 465T346 506T362 563Q362 605 334 633T264
661Q236 661 211 647T169 607T152 548Q152 522 164 500T198 464T250 450Z" />
<glyph unicode="&#xb1;" horiz-adv-x="548" d="M236 220L264 395H73L82 456H273L301 632H368L340 456H531L521 395H330L302 220H236ZM14 27L25 90H473L463 27H14Z" />
<glyph unicode="&#xb2;" horiz-adv-x="431" d="M152 272Q109 272 89 292T68 341Q68 364 81 383T120 417L314 522Q342 537 354 556T366 596Q366 619 349 636T295 653H142L149 701H300Q339 701 365 686T404 648T417 597Q417 563 399 534T342 483L153 382Q141 376
134 368T126 349Q126 337 134 329T161 320L384 321L376 272H152Z" />
<glyph unicode="&#xb3;" horiz-adv-x="425" d="M63 273L71 321H249Q286 321 308 344T331 400Q331 428 314 447T265 467L116 466L124 515H279Q299 515 317 525T346 553T358 594Q358 620 341 636T299 653H120L127 701L307 700Q339 700 363 687T401 650T415 599Q415
565 396 535T339 487Q363 475 376 452T389 401Q389 367 372 338T323 291T248 273H63Z" />
<glyph unicode="&#xb4;" horiz-adv-x="205" d="M104 757L217 880H286L173 757H104Z" />
<glyph unicode="&#xb5;" horiz-adv-x="621" d="M1 -220L117 510H187L143 230Q142 223 142 215T141 200Q141 133 182 91T297 48Q339 48 376 66T441 121T477 214L525 510H595L547 208Q537 137 501 88T412 13T298 -13Q227 -13 181 20T117 104L124 112L71 -220H1Z" />
<glyph unicode="&#xb6;" horiz-adv-x="654" d="M225 -203L294 237Q227 239 181 269T111 346T87 447Q87 519 121 575T220 666T377 700H679L671 649H597L463 -203H409L543 649H412L278 -203H225Z" />
<glyph unicode="&#xb7;" horiz-adv-x="266" d="M140 279Q120 279 106 294T92 329Q92 344 100 356T121 377T148 385Q170 385 183 370T197 335Q197 320 189 307T169 287T140 279Z" />
<glyph unicode="&#xb8;" horiz-adv-x="204" d="M-41 -203L74 18H145L27 -203H-41Z" />
<glyph unicode="&#xb9;" horiz-adv-x="374" d="M62 271L69 320H176L229 652H130L137 700H291L231 320H328L321 271H62Z" />
<glyph unicode="&#xba;" horiz-adv-x="430" d="M249 388Q211 388 177 404T122 452T100 532Q100 578 121 617T181 681T275 706H484L477 661H382Q402 642 414 618T427 561Q427 503 400 465T333 408T249 388ZM252 434Q284 434 311 449T356 493T373 558Q373 585 362
608T329 645T274 660Q237 660 210 642T169 595T155 533Q155 485 183 460T252 434Z" />
<glyph unicode="&#xbb;" horiz-adv-x="515" d="M242 119L417 316L298 510H367L490 314L314 119H242ZM25 119L200 316L81 510H150L273 314L97 119H25Z" />
<glyph unicode="&#xbc;" horiz-adv-x="1007" d="M62 271L69 320H176L229 652H130L137 700H291L231 320H328L321 271H62ZM209 0L761 700H822L269 0H209ZM779 0L794 99H641Q605 99 586 118T566 165Q566 179 571 193T586 220L740 429H803L632 202Q627 194 624 187T621
172Q621 161 628 154T650 147H802L825 297H880L857 147H932L924 99H849L834 0H779Z" />
<glyph unicode="&#xbd;" horiz-adv-x="1041" d="M62 271L69 320H176L229 652H130L137 700H291L231 320H328L321 271H62ZM187 0L739 700H800L247 0H187ZM746 25Q703 25 683 45T662 94Q662 117 675 136T714 170L908 275Q936 290 948 309T960 349Q960 372 943 389T889
406H736L743 454H894Q933 454 959 439T998 401T1011 350Q1011 316 993 287T936 236L747 135Q735 129 728 121T720 102Q720 90 728 82T755 73L978 74L970 25H746Z" />
<glyph unicode="&#xbe;" horiz-adv-x="1027" d="M63 273L71 321H249Q286 321 308 344T331 400Q331 428 314 447T265 467L116 466L124 515H279Q299 515 317 525T346 553T358 594Q358 620 341 636T299 653H120L127 701L307 700Q339 700 363 687T401 650T415 599Q415
565 396 535T339 487Q363 475 376 452T389 401Q389 367 372 338T323 291T248 273H63ZM211 0L763 700H824L271 0H211ZM798 0L813 99H660Q624 99 605 118T585 165Q585 179 590 193T605 220L759 429H822L651 202Q646 194 643 187T640 172Q640 161 647 154T669 147H821L844
297H899L876 147H951L943 99H868L853 0H798Z" />
<glyph unicode="&#xbf;" horiz-adv-x="391" d="M240 -190Q165 -190 113 -160T33 -81T5 23Q5 101 44 159T153 248T309 280L299 218Q233 218 183 194T104 127T76 29Q76 -11 95 -47T153 -106T254 -129H298L289 -190H240ZM303 519Q326 519 339 504T352 468Q352 453
344 441T323 421T295 413Q273 413 260 428T246 463Q246 479 254 491T275 511T303 519Z" />
<glyph unicode="&#xc0;" horiz-adv-x="685" d="M-37 0L310 646Q331 684 355 698T410 713Q446 713 467 694T498 634L642 0H565L524 184H140L43 0H-37ZM173 248H512L435 614Q431 631 424 640T403 649Q391 649 383 641T365 617L173 248ZM382 757L306 880H374L450 757H382Z" />
<glyph unicode="&#xc1;" horiz-adv-x="685" d="M-37 0L310 646Q331 684 355 698T410 713Q446 713 467 694T498 634L642 0H565L524 184H140L43 0H-37ZM173 248H512L435 614Q431 631 424 640T403 649Q391 649 383 641T365 617L173 248ZM383 757L496 880H565L452 757H383Z" />
<glyph unicode="&#xc2;" horiz-adv-x="685" d="M-37 0L310 646Q331 684 355 698T410 713Q446 713 467 694T498 634L642 0H565L524 184H140L43 0H-37ZM173 248H512L435 614Q431 631 424 640T403 649Q391 649 383 641T365 617L173 248ZM284 757L400 880H483L559
757H498L438 850L347 757H284Z" />
<glyph unicode="&#xc3;" horiz-adv-x="685" d="M-37 0L310 646Q331 684 355 698T410 713Q446 713 467 694T498 634L642 0H565L524 184H140L43 0H-37ZM173 248H512L435 614Q431 631 424 640T403 649Q391 649 383 641T365 617L173 248ZM502 767Q481 767 466 775T441
795T422 818Q410 833 397 845T365 858Q348 858 334 844T315 802L311 778H263L267 808Q274 857 303 881T368 906Q397 906 415 892T446 861Q460 845 471 831T505 816Q522 816 536 830T555 872L558 896H607L603 866Q596 816 567 792T502 767Z" />
<glyph unicode="&#xc4;" horiz-adv-x="685" d="M-37 0L310 646Q331 684 355 698T410 713Q446 713 467 694T498 634L642 0H565L524 184H140L43 0H-37ZM173 248H512L435 614Q431 631 424 640T403 649Q391 649 383 641T365 617L173 248ZM518 775Q500 775 488 787T476
818Q476 835 490 849T524 863Q541 863 553 852T565 823Q565 801 551 788T518 775ZM341 775Q323 775 311 787T299 818Q299 835 313 849T347 863Q364 863 376 852T388 823Q388 801 374 788T341 775Z" />
<glyph unicode="&#xc5;" horiz-adv-x="685" d="M-37 0L310 646Q331 684 355 698T410 713Q446 713 467 694T498 634L642 0H565L524 184H140L43 0H-37ZM173 248H512L435 614Q431 631 424 640T403 649Q391 649 383 641T365 617L173 248ZM427 751Q389 751 365 775T340
837Q340 866 354 889T391 926T443 940Q480 940 505 916T531 855Q531 826 517 803T480 765T427 751ZM430 786Q456 786 475 805T494 851Q494 875 479 890T440 905Q415 905 396 886T376 841Q376 818 391 802T430 786Z" />
<glyph unicode="&#xc6;" horiz-adv-x="953" d="M-37 0L309 644Q330 683 355 698T409 713Q440 713 460 698T492 648L504 598Q513 626 530 649T576 686T652 700H998L988 636H648Q591 636 561 601T530 513Q530 502 531 489T537 462L554 388H911L900 324H568L610 143Q619
104 636 84T694 64H899L888 0H667Q611 0 582 28T542 103L524 184H139L41 0H-37ZM172 248H512L433 615Q430 631 424 640T405 649Q393 649 385 640T368 615L172 248Z" />
<glyph unicode="&#xc7;" horiz-adv-x="503" d="M354 0Q284 0 226 25T127 93T62 195T39 321Q39 408 69 477T155 597T283 673T442 700H532L522 636H436Q373 636 315 616T211 556T139 457T112 321Q112 265 131 218T185 137T266 84T366 65H432L422 0H354ZM159 -203L274
18H345L227 -203H159Z" />
<glyph unicode="&#xc8;" horiz-adv-x="558" d="M248 0Q184 0 138 25T68 92T44 184Q44 240 67 285T131 368Q115 391 106 420T97 483Q97 549 127 598T212 673T338 700H579L569 636H323Q249 636 208 594T167 486Q167 463 170 445T184 410Q230 443 278 457T376 472Q420
472 454 460T507 423T526 363Q526 331 508 303T454 256T367 238Q320 238 283 250T219 282T172 321Q147 295 132 264T117 192Q117 159 132 130T180 83T262 64L480 65L470 0H248ZM370 295Q409 295 434 313T460 359Q460 387 436 401T372 415Q334 415 296 404T219 364Q246
333 284 314T370 295ZM329 757L253 880H321L397 757H329Z" />
<glyph unicode="&#xc9;" horiz-adv-x="558" d="M248 0Q184 0 138 25T68 92T44 184Q44 240 67 285T131 368Q115 391 106 420T97 483Q97 549 127 598T212 673T338 700H579L569 636H323Q249 636 208 594T167 486Q167 463 170 445T184 410Q230 443 278 457T376 472Q420
472 454 460T507 423T526 363Q526 331 508 303T454 256T367 238Q320 238 283 250T219 282T172 321Q147 295 132 264T117 192Q117 159 132 130T180 83T262 64L480 65L470 0H248ZM370 295Q409 295 434 313T460 359Q460 387 436 401T372 415Q334 415 296 404T219 364Q246
333 284 314T370 295ZM330 757L443 880H512L399 757H330Z" />
<glyph unicode="&#xca;" horiz-adv-x="558" d="M248 0Q184 0 138 25T68 92T44 184Q44 240 67 285T131 368Q115 391 106 420T97 483Q97 549 127 598T212 673T338 700H579L569 636H323Q249 636 208 594T167 486Q167 463 170 445T184 410Q230 443 278 457T376 472Q420
472 454 460T507 423T526 363Q526 331 508 303T454 256T367 238Q320 238 283 250T219 282T172 321Q147 295 132 264T117 192Q117 159 132 130T180 83T262 64L480 65L470 0H248ZM370 295Q409 295 434 313T460 359Q460 387 436 401T372 415Q334 415 296 404T219 364Q246
333 284 314T370 295ZM231 757L347 880H430L506 757H445L385 850L294 757H231Z" />
<glyph unicode="&#xcb;" horiz-adv-x="558" d="M248 0Q184 0 138 25T68 92T44 184Q44 240 67 285T131 368Q115 391 106 420T97 483Q97 549 127 598T212 673T338 700H579L569 636H323Q249 636 208 594T167 486Q167 463 170 445T184 410Q230 443 278 457T376 472Q420
472 454 460T507 423T526 363Q526 331 508 303T454 256T367 238Q320 238 283 250T219 282T172 321Q147 295 132 264T117 192Q117 159 132 130T180 83T262 64L480 65L470 0H248ZM370 295Q409 295 434 313T460 359Q460 387 436 401T372 415Q334 415 296 404T219 364Q246
333 284 314T370 295ZM464 775Q446 775 434 787T422 818Q422 835 436 849T470 863Q487 863 499 852T511 823Q511 801 497 788T464 775ZM287 775Q269 775 257 787T245 818Q245 835 259 849T293 863Q310 863 322 852T334 823Q334 801 320 788T287 775Z" />
<glyph unicode="&#xcc;" horiz-adv-x="454" d="M13 0L23 64H163L252 636H113L123 700H473L463 636H324L235 64H373L363 0H13ZM267 757L191 880H259L335 757H267Z" />
<glyph unicode="&#xcd;" horiz-adv-x="454" d="M13 0L23 64H163L252 636H113L123 700H473L463 636H324L235 64H373L363 0H13ZM268 757L381 880H450L337 757H268Z" />
<glyph unicode="&#xce;" horiz-adv-x="454" d="M13 0L23 64H163L252 636H113L123 700H473L463 636H324L235 64H373L363 0H13ZM169 757L285 880H368L444 757H383L323 850L232 757H169Z" />
<glyph unicode="&#xcf;" horiz-adv-x="454" d="M13 0L23 64H163L252 636H113L123 700H473L463 636H324L235 64H373L363 0H13ZM402 775Q384 775 372 787T360 818Q360 835 374 849T408 863Q425 863 437 852T449 823Q449 801 435 788T402 775ZM225 775Q207 775 195
787T183 818Q183 835 197 849T231 863Q248 863 260 852T272 823Q272 801 258 788T225 775Z" />
<glyph unicode="&#xd0;" horiz-adv-x="710" d="M144 324L154 387H339L329 324H144ZM11 324L21 387H118L108 324H11ZM39 0L149 700H360Q438 700 497 676T597 611T659 514T680 395Q680 344 665 289T619 183T540 90T424 24T266 0H39ZM122 64H271Q358 64 421 94T526
172T588 279T608 393Q608 464 577 518T489 604T351 636H211L122 64Z" />
<glyph unicode="&#xd1;" horiz-adv-x="798" d="M507 -13Q459 -13 425 7T372 63T353 143Q353 155 354 169T358 196L409 515Q410 523 411 533T413 551Q413 593 385 620T314 648Q284 648 258 635T215 598T193 542L109 0H37L119 531Q128 588 154 628T223 691T321 713Q371
713 407 693T464 637T485 555Q485 545 484 533T480 511L429 185Q428 175 427 165T425 145Q425 101 450 77T515 52Q544 52 570 65T613 102T636 159L720 700H792L710 169Q702 114 674 73T604 10T507 -13ZM570 767Q549 767 534 775T509 795T490 818Q478 833 465 845T433
858Q416 858 402 844T383 802L379 778H331L335 808Q342 857 371 881T436 906Q465 906 483 892T514 861Q528 845 539 831T573 816Q590 816 604 830T623 872L626 896H675L671 866Q664 816 635 792T570 767Z" />
<glyph unicode="&#xd2;" horiz-adv-x="823" d="M409 -13Q333 -13 270 12T162 82T91 190T65 328Q65 409 93 479T172 601T293 683T446 713Q516 713 578 690T687 623T762 516T789 373Q789 285 759 214T675 92T554 14T409 -13ZM412 52Q479 52 534 77T631 145T695 246T718
369Q718 451 683 514T586 612T442 648Q372 648 316 623T220 553T158 451T136 331Q136 257 167 194T259 91T412 52ZM423 757L347 880H415L491 757H423Z" />
<glyph unicode="&#xd3;" horiz-adv-x="823" d="M409 -13Q333 -13 270 12T162 82T91 190T65 328Q65 409 93 479T172 601T293 683T446 713Q516 713 578 690T687 623T762 516T789 373Q789 285 759 214T675 92T554 14T409 -13ZM412 52Q479 52 534 77T631 145T695 246T718
369Q718 451 683 514T586 612T442 648Q372 648 316 623T220 553T158 451T136 331Q136 257 167 194T259 91T412 52ZM424 757L537 880H606L493 757H424Z" />
<glyph unicode="&#xd4;" horiz-adv-x="823" d="M409 -13Q333 -13 270 12T162 82T91 190T65 328Q65 409 93 479T172 601T293 683T446 713Q516 713 578 690T687 623T762 516T789 373Q789 285 759 214T675 92T554 14T409 -13ZM412 52Q479 52 534 77T631 145T695 246T718
369Q718 451 683 514T586 612T442 648Q372 648 316 623T220 553T158 451T136 331Q136 257 167 194T259 91T412 52ZM325 757L441 880H524L600 757H539L479 850L388 757H325Z" />
<glyph unicode="&#xd5;" horiz-adv-x="823" d="M409 -13Q333 -13 270 12T162 82T91 190T65 328Q65 409 93 479T172 601T293 683T446 713Q516 713 578 690T687 623T762 516T789 373Q789 285 759 214T675 92T554 14T409 -13ZM412 52Q479 52 534 77T631 145T695 246T718
369Q718 451 683 514T586 612T442 648Q372 648 316 623T220 553T158 451T136 331Q136 257 167 194T259 91T412 52ZM542 767Q521 767 506 775T481 795T462 818Q450 833 437 845T405 858Q388 858 374 844T355 802L351 778H303L307 808Q314 857 343 881T408 906Q437
906 455 892T486 861Q500 845 511 831T545 816Q562 816 576 830T595 872L598 896H647L643 866Q636 816 607 792T542 767Z" />
<glyph unicode="&#xd6;" horiz-adv-x="823" d="M409 -13Q333 -13 270 12T162 82T91 190T65 328Q65 409 93 479T172 601T293 683T446 713Q516 713 578 690T687 623T762 516T789 373Q789 285 759 214T675 92T554 14T409 -13ZM412 52Q479 52 534 77T631 145T695 246T718
369Q718 451 683 514T586 612T442 648Q372 648 316 623T220 553T158 451T136 331Q136 257 167 194T259 91T412 52ZM558 775Q540 775 528 787T516 818Q516 835 530 849T564 863Q581 863 593 852T605 823Q605 801 591 788T558 775ZM381 775Q363 775 351 787T339 818Q339
835 353 849T387 863Q404 863 416 852T428 823Q428 801 414 788T381 775Z" />
<glyph unicode="&#xd7;" horiz-adv-x="528" d="M84 143L43 187L230 349L97 506L145 550L279 391L463 551L504 506L318 345L451 186L402 143L269 302L84 143Z" />
<glyph unicode="&#xd8;" horiz-adv-x="823" d="M227 103L191 141L636 593L673 555L227 103ZM52 0L155 104L193 68L125 0H52ZM709 592L672 629L743 701H817L709 592ZM409 -13Q333 -13 270 12T162 82T91 190T65 328Q65 409 93 479T172 601T293 683T446 713Q516 713
578 690T687 623T762 516T789 373Q789 285 759 214T675 92T554 14T409 -13ZM412 52Q479 52 534 77T631 145T695 246T718 369Q718 451 683 514T586 612T442 648Q372 648 316 623T220 553T158 451T136 331Q136 257 167 194T259 91T412 52Z" />
<glyph unicode="&#xd9;" horiz-adv-x="696" d="M326 -13Q252 -13 196 15T107 96T75 219Q75 231 76 243T79 269L148 700H220L151 262Q150 252 149 243T147 224Q147 172 170 133T234 73T330 52Q393 52 438 79T511 156T549 269L617 700H689L619 258Q606 174 568 113T468
20T326 -13ZM388 757L312 880H380L456 757H388Z" />
<glyph unicode="&#xda;" horiz-adv-x="696" d="M326 -13Q252 -13 196 15T107 96T75 219Q75 231 76 243T79 269L148 700H220L151 262Q150 252 149 243T147 224Q147 172 170 133T234 73T330 52Q393 52 438 79T511 156T549 269L617 700H689L619 258Q606 174 568 113T468
20T326 -13ZM389 757L502 880H571L458 757H389Z" />
<glyph unicode="&#xdb;" horiz-adv-x="696" d="M326 -13Q252 -13 196 15T107 96T75 219Q75 231 76 243T79 269L148 700H220L151 262Q150 252 149 243T147 224Q147 172 170 133T234 73T330 52Q393 52 438 79T511 156T549 269L617 700H689L619 258Q606 174 568 113T468
20T326 -13ZM290 757L406 880H489L565 757H504L444 850L353 757H290Z" />
<glyph unicode="&#xdc;" horiz-adv-x="696" d="M326 -13Q252 -13 196 15T107 96T75 219Q75 231 76 243T79 269L148 700H220L151 262Q150 252 149 243T147 224Q147 172 170 133T234 73T330 52Q393 52 438 79T511 156T549 269L617 700H689L619 258Q606 174 568 113T468
20T326 -13ZM523 775Q505 775 493 787T481 818Q481 835 495 849T529 863Q546 863 558 852T570 823Q570 801 556 788T523 775ZM346 775Q328 775 316 787T304 818Q304 835 318 849T352 863Q369 863 381 852T393 823Q393 801 379 788T346 775Z" />
<glyph unicode="&#xdd;" horiz-adv-x="696" d="M266 0L298 207Q201 220 148 281T94 432Q94 446 96 461T100 490L133 700H205L172 491Q170 479 169 465T167 439Q167 359 217 314T353 268Q405 268 448 288T522 351T564 462L602 700H674L635 453Q617 339 548 277T370
205L338 0H266ZM370 757L483 880H552L439 757H370Z" />
<glyph unicode="&#xde;" horiz-adv-x="654" d="M39 0L149 700H221L202 579H415Q480 579 527 552T600 479T626 376Q626 325 608 280T554 199T469 143T357 122H130L111 0H39ZM141 186H359Q418 186 461 211T529 278T553 371Q553 414 534 446T480 497T401 515H192L141 186Z" />
<glyph unicode="&#xdf;" horiz-adv-x="637" d="M29 0L110 506Q118 556 139 598T194 673T275 724T380 742Q443 742 492 718T571 653T600 560Q600 517 581 480T527 419T449 384Q509 364 541 319T574 217Q574 176 558 137T511 67T435 18T332 0H230L240 61H323Q382
61 422 82T482 139T503 215Q503 251 485 281T432 330T344 349H322L332 410H355Q407 410 446 428T508 479T531 554Q531 590 511 618T457 664T376 682Q327 682 285 661T215 599T177 500L98 0H29Z" />
<glyph unicode="&#xe0;" horiz-adv-x="650" d="M276 -13Q209 -13 157 19T76 106T46 232Q46 295 66 348T125 440T213 501T324 523Q374 523 419 506T500 455T555 374T573 265Q572 252 571 240T566 215L532 0H462L478 101H477Q442 49 390 18T276 -13ZM296 47Q352
47 397 76T471 154T502 263Q505 321 482 365T418 436T322 462Q266 462 219 432T144 351T116 236Q116 181 139 139T203 72T296 47ZM320 577L244 700H312L388 577H320Z" />
<glyph unicode="&#xe1;" horiz-adv-x="650" d="M276 -13Q209 -13 157 19T76 106T46 232Q46 295 66 348T125 440T213 501T324 523Q374 523 419 506T500 455T555 374T573 265Q572 252 571 240T566 215L532 0H462L478 101H477Q442 49 390 18T276 -13ZM296 47Q352
47 397 76T471 154T502 263Q505 321 482 365T418 436T322 462Q266 462 219 432T144 351T116 236Q116 181 139 139T203 72T296 47ZM294 577L407 700H476L363 577H294Z" />
<glyph unicode="&#xe2;" horiz-adv-x="650" d="M276 -13Q209 -13 157 19T76 106T46 232Q46 295 66 348T125 440T213 501T324 523Q374 523 419 506T500 455T555 374T573 265Q572 252 571 240T566 215L532 0H462L478 101H477Q442 49 390 18T276 -13ZM296 47Q352
47 397 76T471 154T502 263Q505 321 482 365T418 436T322 462Q266 462 219 432T144 351T116 236Q116 181 139 139T203 72T296 47ZM214 577L330 700H413L489 577H428L368 670L277 577H214Z" />
<glyph unicode="&#xe3;" horiz-adv-x="650" d="M276 -13Q209 -13 157 19T76 106T46 232Q46 295 66 348T125 440T213 501T324 523Q374 523 419 506T500 455T555 374T573 265Q572 252 571 240T566 215L532 0H462L478 101H477Q442 49 390 18T276 -13ZM296 47Q352
47 397 76T471 154T502 263Q505 321 482 365T418 436T322 462Q266 462 219 432T144 351T116 236Q116 181 139 139T203 72T296 47ZM425 589Q404 589 389 597T364 617T345 640Q333 655 320 667T288 680Q271 680 257 666T238 624L234 600H186L190 630Q197 679 226
703T291 728Q320 728 338 714T369 683Q383 667 394 653T428 638Q445 638 459 652T478 694L481 718H530L526 688Q519 638 490 614T425 589Z" />
<glyph unicode="&#xe4;" horiz-adv-x="650" d="M276 -13Q209 -13 157 19T76 106T46 232Q46 295 66 348T125 440T213 501T324 523Q374 523 419 506T500 455T555 374T573 265Q572 252 571 240T566 215L532 0H462L478 101H477Q442 49 390 18T276 -13ZM296 47Q352
47 397 76T471 154T502 263Q505 321 482 365T418 436T322 462Q266 462 219 432T144 351T116 236Q116 181 139 139T203 72T296 47ZM447 592Q429 592 417 604T405 635Q405 652 418 666T453 680Q470 680 482 669T494 640Q494 618 480 605T447 592ZM270 592Q252 592
240 604T228 635Q228 652 241 666T276 680Q293 680 305 669T317 640Q317 618 303 605T270 592Z" />
<glyph unicode="&#xe5;" horiz-adv-x="650" d="M276 -13Q209 -13 157 19T76 106T46 232Q46 295 66 348T125 440T213 501T324 523Q374 523 419 506T500 455T555 374T573 265Q572 252 571 240T566 215L532 0H462L478 101H477Q442 49 390 18T276 -13ZM296 47Q352
47 397 76T471 154T502 263Q505 321 482 365T418 436T322 462Q266 462 219 432T144 351T116 236Q116 181 139 139T203 72T296 47ZM355 568Q317 568 293 592T268 654Q268 683 282 706T319 743T371 757Q408 757 433 733T459 672Q459 643 445 620T408 582T355 568ZM358
603Q384 603 403 622T422 668Q422 692 407 707T368 722Q343 722 324 703T304 658Q304 635 319 619T358 603Z" />
<glyph unicode="&#xe6;" horiz-adv-x="948" d="M171 0Q125 0 95 19T49 69T33 138Q33 181 52 215T107 271T193 292H433L444 357Q445 363 446 369T447 382Q447 412 428 431T375 450H125L134 510H385Q432 510 462 487T501 421Q536 465 585 493T698 522Q759 522 807
498T883 430T911 328Q911 302 906 284T888 253T857 236T811 231H498Q499 177 524 139T590 82T681 61H814L804 0H677Q603 0 545 33T461 127L457 105Q443 58 408 29T318 0H171ZM184 60H312Q351 60 377 83T411 146L426 242H205Q159 242 131 216T103 145Q103 111 122
86T184 60ZM504 281H788Q820 281 831 293T843 330Q843 362 828 392T779 443T694 463Q650 463 617 447T560 404T522 345T504 281Z" />
<glyph unicode="&#xe7;" horiz-adv-x="419" d="M287 0Q223 0 169 27T83 105T50 228Q50 311 86 374T187 473T337 510H426L416 449H333Q266 449 219 419T146 340T121 235Q121 176 145 138T210 80T294 61H355L345 0H287ZM89 -203L204 18H275L157 -203H89Z" />
<glyph unicode="&#xe8;" horiz-adv-x="553" d="M324 0Q242 0 181 24T84 97T49 223Q49 287 71 341T134 436T227 500T345 523Q401 523 440 505T500 457T521 390Q521 340 491 302T412 237T300 196T174 179Q162 178 151 179T128 181Q141 128 188 95T329 61H435L427
0H324ZM122 233Q131 232 141 232T161 231Q221 234 273 246T365 277T427 322T449 380Q449 416 418 439T335 463Q276 463 228 432T150 350T122 236Q122 235 122 235T122 233ZM296 577L220 700H288L364 577H296Z" />
<glyph unicode="&#xe9;" horiz-adv-x="553" d="M324 0Q242 0 181 24T84 97T49 223Q49 287 71 341T134 436T227 500T345 523Q401 523 440 505T500 457T521 390Q521 340 491 302T412 237T300 196T174 179Q162 178 151 179T128 181Q141 128 188 95T329 61H435L427
0H324ZM122 233Q131 232 141 232T161 231Q221 234 273 246T365 277T427 322T449 380Q449 416 418 439T335 463Q276 463 228 432T150 350T122 236Q122 235 122 235T122 233ZM270 577L383 700H452L339 577H270Z" />
<glyph unicode="&#xea;" horiz-adv-x="553" d="M324 0Q242 0 181 24T84 97T49 223Q49 287 71 341T134 436T227 500T345 523Q401 523 440 505T500 457T521 390Q521 340 491 302T412 237T300 196T174 179Q162 178 151 179T128 181Q141 128 188 95T329 61H435L427
0H324ZM122 233Q131 232 141 232T161 231Q221 234 273 246T365 277T427 322T449 380Q449 416 418 439T335 463Q276 463 228 432T150 350T122 236Q122 235 122 235T122 233ZM190 577L306 700H389L465 577H404L344 670L253 577H190Z" />
<glyph unicode="&#xeb;" horiz-adv-x="553" d="M324 0Q242 0 181 24T84 97T49 223Q49 287 71 341T134 436T227 500T345 523Q401 523 440 505T500 457T521 390Q521 340 491 302T412 237T300 196T174 179Q162 178 151 179T128 181Q141 128 188 95T329 61H435L427
0H324ZM122 233Q131 232 141 232T161 231Q221 234 273 246T365 277T427 322T449 380Q449 416 418 439T335 463Q276 463 228 432T150 350T122 236Q122 235 122 235T122 233ZM422 592Q404 592 392 604T380 635Q380 652 393 666T428 680Q445 680 457 669T469 640Q469
618 455 605T422 592ZM245 592Q227 592 215 604T203 635Q203 652 216 666T251 680Q268 680 280 669T292 640Q292 618 278 605T245 592Z" />
<glyph unicode="&#xec;" horiz-adv-x="224" d="M37 0L117 510H187L107 0H37ZM132 577L56 700H124L200 577H132Z" />
<glyph unicode="&#xed;" horiz-adv-x="224" d="M37 0L117 510H187L107 0H37ZM106 577L219 700H288L175 577H106Z" />
<glyph unicode="&#xee;" horiz-adv-x="224" d="M37 0L117 510H187L107 0H37ZM26 577L142 700H225L301 577H240L180 670L89 577H26Z" />
<glyph unicode="&#xef;" horiz-adv-x="224" d="M37 0L117 510H187L107 0H37ZM258 592Q240 592 228 604T216 635Q216 652 229 666T264 680Q281 680 293 669T305 640Q305 618 291 605T258 592ZM81 592Q63 592 51 604T39 635Q39 652 52 666T87 680Q104 680 116 669T128
640Q128 618 114 605T81 592Z" />
<glyph unicode="&#xf0;" horiz-adv-x="627" d="M301 -13Q226 -13 170 20T83 112T52 242Q52 299 71 349T125 438T206 498T307 520Q346 520 377 510T431 484L432 485L351 612L194 588V633L324 653L278 730H360L398 665L496 680V634L423 623L511 470Q534 436 548
403T570 337T577 275Q577 214 557 162T499 70T412 9T301 -13ZM303 47Q363 47 408 77T479 157T505 266Q505 323 481 367T415 436T323 462Q269 462 223 434T150 357T123 242Q123 187 146 143T211 73T303 47Z" />
<glyph unicode="&#xf1;" horiz-adv-x="632" d="M37 0L84 302Q96 373 132 422T222 497T341 523Q409 523 458 496T534 421T561 315Q561 306 561 295T558 273L515 0H445L488 277Q490 286 490 294T491 310Q491 377 449 419T335 462Q294 462 256 444T190 389T154 296L107
0H37ZM447 589Q426 589 411 597T386 617T367 640Q355 655 342 667T310 680Q293 680 279 666T260 624L256 600H208L212 630Q219 679 248 703T313 728Q342 728 360 714T391 683Q405 667 416 653T450 638Q467 638 481 652T500 694L503 718H552L548 688Q541 638 512
614T447 589Z" />
<glyph unicode="&#xf2;" horiz-adv-x="630" d="M299 -13Q229 -13 173 19T84 108T51 235Q51 295 72 347T132 438T222 500T331 522Q401 522 457 490T546 401T579 272Q579 214 558 163T499 72T411 10T299 -13ZM303 48Q365 48 411 79T483 162T509 270Q509 325 485
368T420 436T327 461Q268 461 222 431T148 351T121 239Q121 186 144 143T209 74T303 48ZM314 577L238 700H306L382 577H314Z" />
<glyph unicode="&#xf3;" horiz-adv-x="630" d="M299 -13Q229 -13 173 19T84 108T51 235Q51 295 72 347T132 438T222 500T331 522Q401 522 457 490T546 401T579 272Q579 214 558 163T499 72T411 10T299 -13ZM303 48Q365 48 411 79T483 162T509 270Q509 325 485
368T420 436T327 461Q268 461 222 431T148 351T121 239Q121 186 144 143T209 74T303 48ZM287 577L400 700H469L356 577H287Z" />
<glyph unicode="&#xf4;" horiz-adv-x="630" d="M299 -13Q229 -13 173 19T84 108T51 235Q51 295 72 347T132 438T222 500T331 522Q401 522 457 490T546 401T579 272Q579 214 558 163T499 72T411 10T299 -13ZM303 48Q365 48 411 79T483 162T509 270Q509 325 485
368T420 436T327 461Q268 461 222 431T148 351T121 239Q121 186 144 143T209 74T303 48ZM207 577L323 700H406L482 577H421L361 670L270 577H207Z" />
<glyph unicode="&#xf5;" horiz-adv-x="630" d="M299 -13Q229 -13 173 19T84 108T51 235Q51 295 72 347T132 438T222 500T331 522Q401 522 457 490T546 401T579 272Q579 214 558 163T499 72T411 10T299 -13ZM303 48Q365 48 411 79T483 162T509 270Q509 325 485
368T420 436T327 461Q268 461 222 431T148 351T121 239Q121 186 144 143T209 74T303 48ZM419 589Q398 589 383 597T358 617T339 640Q327 655 314 667T282 680Q265 680 251 666T232 624L228 600H180L184 630Q191 679 220 703T285 728Q314 728 332 714T363 683Q377
667 388 653T422 638Q439 638 453 652T472 694L475 718H524L520 688Q513 638 484 614T419 589Z" />
<glyph unicode="&#xf6;" horiz-adv-x="630" d="M299 -13Q229 -13 173 19T84 108T51 235Q51 295 72 347T132 438T222 500T331 522Q401 522 457 490T546 401T579 272Q579 214 558 163T499 72T411 10T299 -13ZM303 48Q365 48 411 79T483 162T509 270Q509 325 485
368T420 436T327 461Q268 461 222 431T148 351T121 239Q121 186 144 143T209 74T303 48ZM440 592Q422 592 410 604T398 635Q398 652 411 666T446 680Q463 680 475 669T487 640Q487 618 473 605T440 592ZM263 592Q245 592 233 604T221 635Q221 652 234 666T269 680Q286
680 298 669T310 640Q310 618 296 605T263 592Z" />
<glyph unicode="&#xf7;" horiz-adv-x="590" d="M319 473Q297 473 282 489T266 526Q266 551 285 570T329 589Q351 589 366 573T382 536Q382 520 373 505T350 482T319 473ZM272 111Q250 111 235 127T219 164Q219 189 237 208T281 227Q304 227 319 211T334 174Q334
157 326 143T303 120T272 111ZM81 316L91 379H540L529 316H81Z" />
<glyph unicode="&#xf8;" horiz-adv-x="630" d="M175 78L141 111L448 436L482 402L175 78ZM505 426L470 458L520 510H587L505 426ZM32 0L120 90L153 56L99 0H32ZM299 -13Q229 -13 173 19T84 108T51 235Q51 295 72 347T132 438T222 500T331 522Q401 522 457 490T546
401T579 272Q579 214 558 163T499 72T411 10T299 -13ZM303 48Q365 48 411 79T483 162T509 270Q509 325 485 368T420 436T327 461Q268 461 222 431T148 351T121 239Q121 186 144 143T209 74T303 48Z" />
<glyph unicode="&#xf9;" horiz-adv-x="632" d="M595 510L547 208Q537 137 501 88T410 13T290 -13Q223 -13 174 14T98 89T71 195Q71 204 72 215T74 237L117 510H187L144 233Q143 225 142 217T141 200Q141 133 182 91T297 48Q339 48 376 66T441 121T477 214L525
510H595ZM336 577L260 700H328L404 577H336Z" />
<glyph unicode="&#xfa;" horiz-adv-x="632" d="M595 510L547 208Q537 137 501 88T410 13T290 -13Q223 -13 174 14T98 89T71 195Q71 204 72 215T74 237L117 510H187L144 233Q143 225 142 217T141 200Q141 133 182 91T297 48Q339 48 376 66T441 121T477 214L525
510H595ZM309 577L422 700H491L378 577H309Z" />
<glyph unicode="&#xfb;" horiz-adv-x="632" d="M595 510L547 208Q537 137 501 88T410 13T290 -13Q223 -13 174 14T98 89T71 195Q71 204 72 215T74 237L117 510H187L144 233Q143 225 142 217T141 200Q141 133 182 91T297 48Q339 48 376 66T441 121T477 214L525
510H595ZM229 577L345 700H428L504 577H443L383 670L292 577H229Z" />
<glyph unicode="&#xfc;" horiz-adv-x="632" d="M595 510L547 208Q537 137 501 88T410 13T290 -13Q223 -13 174 14T98 89T71 195Q71 204 72 215T74 237L117 510H187L144 233Q143 225 142 217T141 200Q141 133 182 91T297 48Q339 48 376 66T441 121T477 214L525
510H595ZM462 592Q444 592 432 604T420 635Q420 652 433 666T468 680Q485 680 497 669T509 640Q509 618 495 605T462 592ZM285 592Q267 592 255 604T243 635Q243 652 256 666T291 680Q308 680 320 669T332 640Q332 618 318 605T285 592Z" />
<glyph unicode="&#xfd;" horiz-adv-x="632" d="M325 -217Q275 -217 241 -197T189 -145T171 -76Q171 -37 190 4T248 86T347 163T489 227L476 167Q365 123 302 61T238 -67Q238 -106 260 -131T326 -157Q373 -157 402 -125T439 -41L524 510H595L510 -34Q501 -91 477
-132T414 -195T325 -217ZM208 2Q143 19 107 69T71 188Q71 199 72 214T74 239L118 510H187L145 240Q144 230 143 219T142 199Q142 145 168 109T240 61L208 2ZM305 577L418 700H487L374 577H305Z" />
<glyph unicode="&#xfe;" horiz-adv-x="644" d="M7 -210L151 730H221L173 417H175Q207 465 257 493T368 521Q432 521 482 491T562 405T592 278Q592 218 572 166T517 73T433 10T327 -13Q257 -13 204 24T128 121H127L77 -210H7ZM323 47Q378 47 423 77T494 159T521
272Q521 329 499 371T437 438T348 462Q293 462 249 434T179 355T150 237Q150 183 172 140T233 72T323 47Z" />
<glyph unicode="&#xff;" horiz-adv-x="632" d="M325 -217Q275 -217 241 -197T189 -145T171 -76Q171 -37 190 4T248 86T347 163T489 227L476 167Q365 123 302 61T238 -67Q238 -106 260 -131T326 -157Q373 -157 402 -125T439 -41L524 510H595L510 -34Q501 -91 477
-132T414 -195T325 -217ZM208 2Q143 19 107 69T71 188Q71 199 72 214T74 239L118 510H187L145 240Q144 230 143 219T142 199Q142 145 168 109T240 61L208 2ZM457 592Q439 592 427 604T415 635Q415 652 428 666T463 680Q480 680 492 669T504 640Q504 618 490 605T457
592ZM280 592Q262 592 250 604T238 635Q238 652 251 666T286 680Q303 680 315 669T327 640Q327 618 313 605T280 592Z" />
<glyph unicode="&#x2013;" horiz-adv-x="500" d="M-4 231L6 296H506L496 231H-4Z" />
<glyph unicode="&#x2014;" horiz-adv-x="1000" d="M-4 231L6 296H1006L996 231H-4Z" />
<glyph unicode="&#x2018;" horiz-adv-x="190" d="M124 424Q98 424 85 439T72 475Q72 486 75 497T85 522L165 700H225L147 526Q159 523 169 511T180 481Q180 466 173 453T154 432T124 424Z" />
<glyph unicode="&#x2019;" horiz-adv-x="190" d="M69 434L143 607Q130 611 120 623T110 652Q110 671 118 683T139 702T167 709Q188 709 203 697T218 659Q218 644 212 630T198 596L129 434H69Z" />
<glyph unicode="&#x201a;" horiz-adv-x="180" d="M-19 -146L37 -6Q21 -2 13 11T4 40Q4 56 12 69T34 89T62 97Q86 97 99 81T110 43Q109 28 104 13T92 -17L41 -146H-19Z" />
<glyph unicode="&#x201c;" horiz-adv-x="364" d="M378 424Q352 424 339 439T326 475Q326 486 329 497T339 522L419 700H479L401 526Q413 523 423 511T434 481Q434 466 427 453T408 432T378 424ZM305 424Q279 424 266 439T253 475Q253 486 256 497T266 522L346
700H406L328 526Q340 523 350 511T361 481Q361 466 354 453T335 432T305 424Z" />
<glyph unicode="&#x201d;" horiz-adv-x="370" d="M101 434L175 607Q162 611 152 623T142 652Q142 671 150 683T171 702T199 709Q220 709 235 697T250 659Q250 644 244 630T230 596L161 434H101ZM281 434L355 607Q342 611 332 623T322 652Q322 671 330 683T351
702T379 709Q400 709 415 697T430 659Q430 644 424 630T410 596L341 434H281Z" />
<glyph unicode="&#x201e;" horiz-adv-x="374" d="M-19 -146L37 -6Q21 -2 13 11T4 40Q4 56 12 69T34 89T62 97Q86 97 99 81T110 43Q109 28 104 13T92 -17L41 -146H-19ZM170 -146L226 -6Q210 -2 202 11T193 40Q193 56 201 69T223 89T251 97Q275 97 288 81T299 43Q298
28 293 13T281 -17L230 -146H170Z" />
<glyph unicode="&#x2022;" horiz-adv-x="294" d="M152 256Q134 256 120 264T98 288T89 321Q89 340 99 356T127 382T163 392Q181 392 195 383T217 360T225 328Q225 308 215 292T189 266T152 256Z" />
<glyph unicode="&#x2039;" horiz-adv-x="297" d="M161 119L43 314L223 510H298L114 313L230 119H161Z" />
<glyph unicode="&#x203a;" horiz-adv-x="297" d="M25 119L200 316L81 510H150L273 314L97 119H25Z" />
</font>
</defs>
</svg>
